<?xml version="1.0" encoding="utf-8"?><svg version="1.1" id="Layer_1" xmlns="http://www.w3.org/2000/svg" xmlns:xlink="http://www.w3.org/1999/xlink" x="0px" y="0px" viewBox="0 0 122.88 122.88" style="enable-background:new 0 0 122.88 122.88" xml:space="preserve"><style type="text/css">.st0{fill-rule:evenodd;clip-rule:evenodd;}</style><g><path class="st0" d="M122.88,61.44L122.88,61.44L122.88,61.44c0,8.47-1.5,16.34-4.5,23.58c-0.49,1.19-1.02,2.35-1.59,3.49 c-2.92,5.89-6.89,11.35-11.92,16.36h0l0,0l0,0h0l0,0c-1.67,1.68-3.4,3.24-5.18,4.69c-1.78,1.45-3.61,2.78-5.48,3.99 c-9.64,6.23-20.58,9.33-32.78,9.33h0v0c-8.47,0-16.33-1.5-23.57-4.5c-1.19-0.49-2.35-1.02-3.49-1.59 c-5.89-2.92-11.35-6.89-16.36-11.92l0,0v0h0l0,0l0,0c-1.68-1.67-3.24-3.4-4.69-5.18c-1.45-1.78-2.78-3.61-3.98-5.48 C3.11,84.58,0,73.64,0,61.44v0h0c0-8.47,1.5-16.33,4.5-23.57c0.49-1.19,1.02-2.35,1.59-3.49c2.92-5.89,6.89-11.35,11.92-16.36l0,0 v0l0,0h0l0,0c1.68-1.68,3.4-3.24,5.18-4.69c1.78-1.45,3.61-2.78,5.48-3.98C38.3,3.11,49.24,0,61.44,0h0v0 c8.47,0,16.33,1.5,23.57,4.5c1.19,0.49,2.35,1.02,3.49,1.59c5.89,2.92,11.35,6.89,16.36,11.92v0l0,0l0,0v0l0,0 c1.68,1.68,3.24,3.4,4.69,5.18c1.45,1.78,2.78,3.61,3.99,5.48C119.77,38.3,122.88,49.24,122.88,61.44L122.88,61.44z M111.68,61.44 L111.68,61.44L111.68,61.44c0-6.94-1.23-13.37-3.68-19.29c-0.4-0.97-0.83-1.92-1.29-2.85c-2.39-4.81-5.64-9.27-9.75-13.37l0,0 c-4.9-4.91-10.3-8.59-16.22-11.05c-5.92-2.45-12.35-3.68-19.29-3.68v0.01h0V11.2c-6.2,0-12.04,1.01-17.49,3.02 c-0.9,0.33-1.77,0.68-2.63,1.06c-4.22,1.85-8.21,4.34-11.95,7.45L53.2,46.57c1.52-0.13,2.93-0.29,4.23-0.5 c1.41-0.22,2.71-0.49,3.92-0.8c5.97-1.55,9.29-4.2,9.95-7.95l0,0c0.05-0.32,0.08-0.62,0.11-0.92c0.02-0.29,0.04-0.59,0.04-0.89 c0-3.1-1.32-5.53-3.95-7.29c-2.75-1.84-6.91-2.99-12.48-3.44l-0.05-1.5l0.01,0c0.27-0.04,0.53-0.07,0.77-0.1 c0.21-0.03,0.47-0.06,0.78-0.08c1.37-0.14,2.8-0.2,4.26-0.2c6.27,0,11,1.05,14.19,3.16c3.29,2.17,4.93,5.42,4.93,9.74v0h0 c0,0.71-0.05,1.43-0.13,2.15c-0.01,0.08-0.02,0.2-0.05,0.36c-0.08,0.61-0.2,1.23-0.34,1.87v0.01c-0.92,3.87-3.07,6.99-6.48,9.36 c-3.05,2.13-7.12,3.64-12.19,4.53l13.41,13.43h26.3h0.75v0.76V79.6v0.76h-0.75H86.98l13.09,13.11c0.94-1.12,1.82-2.26,2.64-3.42 c0.98-1.37,1.87-2.78,2.68-4.21C109.59,78.48,111.68,70.34,111.68,61.44L111.68,61.44z M91.8,101.39L70.77,80.36h-38.9h-0.76V79.6 V68.27v-0.76h0.76h26.06L45.81,55.38c-0.84,0.04-1.66,0.08-2.45,0.12c-0.84,0.04-1.67,0.09-2.49,0.14 c-4.02,0.24-6.83,0.5-8.42,0.78l0,0l0,0c-0.59,0.1-1.13,0.21-1.62,0.33c-0.5,0.12-0.97,0.25-1.42,0.4 c-2.18,0.72-3.58,1.69-4.2,2.93l0,0.01l0,0v0c-0.03,0.06-0.06,0.11-0.07,0.15c-0.02,0.05-0.04,0.1-0.06,0.16 c-0.1,0.29-0.15,0.61-0.15,0.95l0,0h-0.01c0,0.51,0.09,1.05,0.28,1.62c0.04,0.11,0.07,0.21,0.1,0.29c0.19,0.5,0.45,1.02,0.77,1.55 l-1.1,0.99l0,0l-0.01,0c-0.36-0.28-0.7-0.57-1.02-0.87c-0.31-0.3-0.61-0.62-0.88-0.95l0,0c-1.39-1.7-2.09-3.69-2.09-5.96 c0-0.36,0.03-0.74,0.08-1.13c0.05-0.38,0.13-0.75,0.22-1.13l0,0c0.55-2.47,2.42-4.39,5.59-5.79c2.71-1.19,6.42-2,11.11-2.42 L21.42,31.01c-0.81,1.06-1.57,2.14-2.28,3.22c-0.86,1.32-1.65,2.67-2.38,4.05c-3.71,7.05-5.56,14.77-5.56,23.16v0H11.2 c0,6.94,1.23,13.37,3.68,19.29c0.4,0.97,0.83,1.92,1.3,2.85c2.39,4.81,5.64,9.27,9.75,13.37l0,0c4.9,4.91,10.3,8.59,16.22,11.05 c5.91,2.45,12.34,3.68,19.29,3.68h0v0c5.79,0,11.28-0.9,16.45-2.71c0.84-0.29,1.68-0.61,2.5-0.95 C84.38,106.37,88.19,104.16,91.8,101.39L91.8,101.39z M30.02,80.36H26.3h-0.76V79.6V68.27v-0.76h0.76h3.72h0.76v0.76V79.6v0.76 H30.02L30.02,80.36z M24.61,80.36h-3.49h-0.76V79.6V68.27v-0.76h0.76h3.49h0.76v0.76V79.6v0.76H24.61L24.61,80.36z"/></g></svg>