<?xml version="1.0" encoding="utf-8"?><svg version="1.1" id="Layer_1" xmlns="http://www.w3.org/2000/svg" xmlns:xlink="http://www.w3.org/1999/xlink" x="0px" y="0px" viewBox="0 0 122.88 86.41" style="enable-background:new 0 0 122.88 86.41" xml:space="preserve"><style type="text/css">.st0{fill-rule:evenodd;clip-rule:evenodd;}</style><g><path class="st0" d="M25.25,58.4l-0.22-1.98L81.44,2.39c-3.32-2.94-9.19-3.1-13.83-0.86L25.68,32h-3.89v-5.94H7.63v6.59 c-9.8,4.01-10.55,21.12,0,25.75H25.25L25.25,58.4z M85.68,42.44c0.95,4.41,3.8,6.61,3.8,8.81c0,2.2-0.95,4.41-3.8,4.41 c-2.85,0-3.8-2.2-3.8-4.41C81.88,49.05,84.73,46.85,85.68,42.44L85.68,42.44z M83.59,22.06c0.95,4.79,3.8,7.18,3.8,9.57 c0,2.39-0.95,4.79-3.8,4.79c-2.85,0-3.8-2.39-3.8-4.79C79.79,29.24,82.64,26.84,83.59,22.06L83.59,22.06z M70.61,18.5L81.56,8.6 l4.17,5.59l-11.03,9.83L70.61,18.5L70.61,18.5z M122.88,63.74c-0.78,12.6-11.33,22.66-24.12,22.66H24.44 c-12.79,0-23.34-10.06-24.12-22.66H122.88L122.88,63.74z M11.7,11.17h5.65c2.86,0,5.2,2.34,5.2,5.2v7.2H6.45v-7.15 C6.45,13.53,8.81,11.17,11.7,11.17L11.7,11.17z"/></g></svg>